<?xml version="1.0" encoding="utf-8"?>
<!-- Generator: Adobe Illustrator 16.0.4, SVG Export Plug-In . SVG Version: 6.00 Build 0)  -->
<!DOCTYPE svg PUBLIC "-//W3C//DTD SVG 1.1//EN" "http://www.w3.org/Graphics/SVG/1.1/DTD/svg11.dtd">
<svg version="1.1"
	 id="Layer_1" xmlns:v="http://schemas.microsoft.com/visio/2003/SVGExtensions/" xmlns:ev="http://www.w3.org/2001/xml-events"
	 xmlns="http://www.w3.org/2000/svg" xmlns:xlink="http://www.w3.org/1999/xlink" x="0px" y="0px" width="265px" height="227px"
	 viewBox="-0.044 -0.078 265 227" enable-background="new -0.044 -0.078 265 227" xml:space="preserve">
<v:documentProperties  v:viewMarkup="false" v:metric="true" v:langID="2057"></v:documentProperties>
<g>
	<g>
		<path fill="#F5A623" d="M0,218.295c4.386-13.348,8.539-26.777,13.239-40.016c3.243-9.135,7.242-18,10.88-26.928
			c-3.19-2.3-6.667-4.24-9.422-6.925c-3.828-3.729-5.025-8.577-3.492-13.811c0.275-0.938,1.401-2.062,2.306-2.242
			c0.675-0.138,1.999,0.94,2.379,1.774c0.847,1.859,1.51,3.865,1.843,5.879c0.823,4.98,3.777,8.433,7.624,11.632
			c1.822-2.451,1.981-4.306-0.306-6.562c-8.907-8.8-9.651-19.572-6.854-30.987c0.555-2.261,1.547-5.162,4.509-4.799
			c3.087,0.379,2.504,3.6,2.558,5.659c0.15,5.793-0.382,11.603-0.136,17.385c0.133,3.117,1.31,6.191,2.015,9.285
			c0.507-0.062,1.013-0.125,1.52-0.188c0.368-5.408,0.847-10.811,1.085-16.225c0.646-14.648,0.6-29.354,1.917-43.938
			c1.851-20.498,9.873-38.798,23.855-53.888c12.376-13.358,28.388-20.45,46.407-22.657c6.051-0.741,12.216-0.609,18.332-0.746
			c2.896-0.064,5.35,1.104,7.147,3.957c-1.877-0.165-3.769-0.233-5.628-0.511c-21.054-3.144-39.33,2.51-54.731,17.254
			C54.25,32.954,46.639,48.196,42.935,65.213c-3.31,15.207-5.486,30.663-8.078,46.022c-1.107,6.562-2.003,13.162-2.986,19.746
			c-0.124,0.828-0.187,1.664,0.189,2.666c1.347-2.696,2.75-5.366,4.032-8.098c9.94-21.151,20.917-41.72,33.771-61.279
			c7.205-10.964,16.306-19.91,27.672-26.801c-2.102,2.466-4.121,5.009-6.319,7.386C78.157,58.972,67.164,74.559,58.698,91.803
			c-6.811,13.875-13.074,28.021-19.45,42.104c-2.335,5.155-4.44,10.43-6.323,15.766c-0.441,1.25,0.448,2.972,0.75,4.613
			c-0.607,0-1.625,0-2.964,0c-2.711,7.11-5.619,14.272-8.178,21.562c-3.938,11.209-7.041,22.758-11.709,33.645
			c-2.1,4.896-7.125,8.539-10.823,12.752C0,220.928,0,219.611,0,218.295z"/>
		<path fill="#F5A623" d="M57.211,226.846c-2.615-3.315-5.609-6.404-7.771-9.996c-5.336-8.863-11.967-11.526-22.425-4.225
			c-3.308,2.312-6.553,4.77-9.523,7.49c-3.702,3.395-8.198,3.615-12.835,3.889c8.925-6.9,16.686-15.428,27.328-19.82
			c6.528-2.692,11.299-1.428,15.046,4.373c1.479,2.289,3.078,4.508,4.726,6.678c3.651,4.812,6.397,5.476,11.396,2.187
			c3.352-2.207,6.408-4.896,9.446-7.541c9.896-8.616,21.298-12.543,34.2-9.719c6.492,1.422,12.621,4.51,18.898,6.885
			c0.459,0.174,0.791,0.687,1.002,1.927c-2.759-0.394-5.533-0.701-8.275-1.191c-17.841-3.188-33.795-0.025-46.85,13.512
			c-2.07,2.146-4.737,3.719-7.129,5.557C62.034,226.846,59.622,226.846,57.211,226.846z"/>
		<path fill="#F5A623" d="M26.86,165.575c2.232-2.402,4.192-5.156,6.748-7.146c7.5-5.836,15.357-11.215,22.855-17.051
			c12.732-9.912,22.918-21.863,30.262-36.433c7.201-14.289,11.694-29.518,17.168-44.417c4.387-11.939,10.583-22.926,18.036-33.219
			c2.673-3.69,5.443-7.325,7.861-11.179c1.595-2.541,2.11-5.42,0.717-8.419c-0.432-0.929-0.466-2.16-0.331-3.208
			c0.249-1.932,1.424-2.494,2.941-1.172c4.155,3.62,7.062,10.08,1.745,14.525c-15.839,13.251-21.4,31.619-26.327,50.438
			c-3.231,12.336-5.979,24.837-9.968,36.926c-3.17,9.605-7.61,18.882-14.457,26.619c-7.309,8.26-16.91,13.375-26.379,18.609
			c-9.157,5.062-18.383,9.998-27.587,14.975c-0.75,0.406-1.559,0.705-2.34,1.055C27.488,166.178,27.174,165.875,26.86,165.575z"/>
	</g>
	<path fill="#F5A623" d="M264.912,148.997c-4.468,5.399-8.793,10.84-13.349,16.082c-5.379,6.19-10.781,12.379-16.49,18.262
		c-6.233,6.427-12.95,12.375-20.364,17.438c-6.431,4.392-13.624,7.097-21.245,8.525c-5.73,1.074-11.511,1.98-17.307,2.609
		c-3.771,0.41-7.607,0.229-11.415,0.238c-4.205,0.012-8.431,0.176-12.613-0.148c-5.667-0.438-11.325-1.129-16.94-2.01
		c-2.723-0.428-4.382-2.633-5.167-5.145c-2.366-7.58-5.006-15.119-6.691-22.859c-1.707-7.836-2.516-15.879-3.507-23.859
		c-1.018-8.193-0.483-16.398,1.042-24.471c0.786-4.164,2.076-8.338,3.829-12.191c3.008-6.613,6.363-13.091,9.95-19.411
		c2.469-4.354,5.463-8.427,8.42-12.482c4.086-5.606,8.336-11.093,12.559-16.599c1.422-1.854,2.923-3.654,4.514-5.362
		c0.237-0.255,1.235-0.016,1.76,0.243c3.276,1.626,4.266,4.819,5.521,7.927c2.501,6.185,6.939,10.875,12.118,14.939
		c4.319,3.393,9.333,5.136,14.642,6.119c5.426,1.004,10.887,0.951,16.338,0.184c2-0.281,4.018-0.538,5.971-1.028
		c2.49-0.625,3.51,1.583,5.197,2.472c1.744,0.918,2.045,2.392,2.086,4.427c0.078,3.769,0.728,7.55,1.426,11.272
		c0.5,2.676,1.343,5.309,2.254,7.883c2.76,7.789,7.688,13.729,15.445,16.896c5.426,2.211,11.021,3.998,16.486,6.112
		c1.332,0.517,2.465,1.562,3.664,2.396C263.582,147.834,264.065,148.295,264.912,148.997z M206.333,159.79l-2.637-2.437l8.021-8.682
		c8.625-9.326,8.053-23.879-1.275-32.502c-9.328-8.625-23.883-8.052-32.506,1.277l-8.021,8.678l-3.135-2.896
		c-1.614-1.494-4.157-1.395-5.651,0.224l-31.124,33.668c-1.494,1.616-1.393,4.16,0.222,5.651l39.548,36.562
		c1.617,1.494,4.16,1.395,5.654-0.223l31.125-33.67C208.049,163.825,207.949,161.282,206.333,159.79z M175.647,131.426
		l22.312,20.627l8.023-8.68c5.695-6.162,5.316-15.773-0.844-21.469c-6.162-5.695-15.773-5.318-21.471,0.844L175.647,131.426z
		 M198.185,162.249l-33.312-30.795l-26.369,28.526l33.312,30.791L198.185,162.249z M165.258,152.729
		c2.984-3.229,8.019-3.428,11.245-0.442c3.229,2.981,3.426,8.019,0.439,11.244c-1.652,1.791-3.939,2.645-6.198,2.545l-3.099,3.35
		c-1.771,1.916-4.758,2.035-6.676,0.265c-1.914-1.773-2.033-4.76-0.263-6.674l2.688-2.91
		C162.752,157.577,163.354,154.786,165.258,152.729z"/>
</g>
</svg>
