<?xml version="1.0" encoding="utf-8"?>
<!-- Generator: Adobe Illustrator 16.0.4, SVG Export Plug-In . SVG Version: 6.00 Build 0)  -->
<!DOCTYPE svg PUBLIC "-//W3C//DTD SVG 1.1//EN" "http://www.w3.org/Graphics/SVG/1.1/DTD/svg11.dtd">
<svg version="1.1" id="Layer_1" xmlns:sketch="http://www.bohemiancoding.com/sketch/ns"
	 xmlns="http://www.w3.org/2000/svg" xmlns:xlink="http://www.w3.org/1999/xlink" x="0px" y="0px" width="403px" height="39.001px"
	 viewBox="3 -522.5 403 39.001" enable-background="new 3 -522.5 403 39.001" xml:space="preserve">
<linearGradient id="SVGID_1_" gradientUnits="userSpaceOnUse" x1="204.4995" y1="-522.5005" x2="204.4995" y2="-483.4995">
	<stop  offset="0" style="stop-color:#6ACFFF"/>
	<stop  offset="0.2043" style="stop-color:#67CDFA"/>
	<stop  offset="0.4336" style="stop-color:#5FC7ED"/>
	<stop  offset="0.6749" style="stop-color:#52BED6"/>
	<stop  offset="0.923" style="stop-color:#40B1B7"/>
	<stop  offset="1" style="stop-color:#39ACAC"/>
</linearGradient>
<path fill="url(#SVGID_1_)" d="M48-506.515c-1.1,0-1.363-0.636-0.584-1.413l3.168-3.16C51.363-511.865,52.9-512.5,54-512.5h20
	c1.1,0,2,0.9,2,2v19.001c0,1.1-0.636,2.636-1.414,3.414l-3.172,3.172C70.636-484.136,69.1-483.5,68-483.5H48c-1.1,0-2-0.9-2-2
	v-13.492c0-1.1,0.9-2,2-2h14.095c1.1,0,2-0.9,2-2v-1.523c0-1.1-0.9-2-2-2H48z M64-493.5c0-1.1-0.9-2-2-2h-2c-1.1,0-2,0.9-2,2v2
	c0,1.1,0.9,2,2,2h2c1.1,0,2-0.9,2-2V-493.5z M102-512.5c1.1,0,2,0.9,2,2v1.985c0,1.1-0.9,2-2,2h-8c-1.1,0-2,0.9-2,2v13.016
	c0,1.1-0.636,2.636-1.414,3.414l-3.172,3.172C86.636-484.136,85.1-483.5,84-483.5h-2c-1.1,0-2-0.9-2-2v-19.016
	c0-1.1,0.637-2.636,1.416-3.413l3.168-3.16C85.363-511.865,86.9-512.5,88-512.5H102z M129-512.434c1.1,0,2,0.9,2,2v1.919
	c0,1.1-0.9,2-2,2h-1.76c-1.1,0-2,0.9-2,2v13.016c0,1.1-0.636,2.636-1.414,3.414l-3.172,3.172c-0.778,0.778-2.314,1.414-3.414,1.414
	h-2c-1.1,0-2-0.9-2-2v-19.016c0-1.1-0.9-2-2-2H109c-1.1,0-2-0.9-2-2v-1.919c0-1.1,0.9-2,2-2h2.24c1.1,0,2.633-0.64,3.406-1.422
	l3.188-3.223c0.773-0.782,2.306-1.422,3.406-1.422h2c1.1,0,2,0.9,2,2v2.066c0,1.1,0.9,2,2,2H129z M137-483.5c-1.1,0-2-0.9-2-2
	v-19.016c0-1.1,0.9-2,2-2h8c1.1,0,2,0.9,2,2v13.016c0,1.1-0.636,2.636-1.414,3.414l-3.172,3.172
	c-0.778,0.778-2.314,1.414-3.414,1.414H137z M139.586-517.086c0.778-0.778,2.314-1.414,3.414-1.414h2c1.1,0,2,0.9,2,2v2
	c0,1.1-0.9,2-2,2h-8c-1.1,0-1.364-0.636-0.586-1.414L139.586-517.086z M156.584-511.088c0.779-0.777,2.316-1.413,3.416-1.413h20
	c1.1,0,2,0.9,2,2v1.985c0,1.1-0.9,2-2,2h-14.095c-1.1,0-2,0.9-2,2v1.523c0,1.1,0.9,2,2,2H180c1.1,0,2,0.9,2,2v7.492
	c0,1.1-0.636,2.636-1.414,3.414l-3.172,3.172c-0.778,0.778-2.314,1.414-3.414,1.414h-20c-1.1,0-2-0.9-2-2v-1.984c0-1.1,0.9-2,2-2
	h14.095c1.1,0,2-0.9,2-2v-1.523c0-1.1-0.9-2-2-2H154c-1.1,0-2-0.9-2-2v-7.508c0-1.1,0.637-2.636,1.416-3.413L156.584-511.088z
	 M188.667-494.992c-1.1,0-1.364-0.636-0.586-1.414l3.172-3.172c0.778-0.778,2.314-1.414,3.414-1.414h8c1.1,0,2,0.9,2,2v2
	c0,1.1-0.9,2-2,2H188.667z M215.584-511.088c0.779-0.777,2.316-1.413,3.416-1.413h20c1.1,0,2,0.9,2,2v1.985c0,1.1-0.9,2-2,2h-14.096
	c-1.1,0-2,0.9-2,2v1.523c0,1.1,0.9,2,2,2H239c1.1,0,2,0.9,2,2v7.492c0,1.1-0.637,2.636-1.414,3.414l-3.172,3.172
	c-0.777,0.778-2.314,1.414-3.414,1.414h-20c-1.1,0-2-0.9-2-2v-1.984c0-1.1,0.9-2,2-2h14.096c1.1,0,2-0.9,2-2v-1.523c0-1.1-0.9-2-2-2
	H213c-1.1,0-2-0.9-2-2v-7.508c0-1.1,0.637-2.636,1.416-3.413L215.584-511.088z M262-500.5c1.1,0,2-0.9,2-2v-2c0-1.1-0.9-2-2-2h-2
	c-1.1,0-2,0.9-2,2v2c0,1.1,0.9,2,2,2H262z M274-512.5c1.1,0,2,0.9,2,2v13.493c0,1.1-0.9,2-2,2h-14.096c-1.1,0-2,0.9-2,2v1.523
	c0,1.1,0.9,2,2,2H274c1.1,0,1.363,0.636,0.584,1.412l-3.168,3.16c-0.779,0.776-2.316,1.412-3.416,1.412h-20c-1.1,0-2-0.9-2-2
	v-19.016c0-1.1,0.637-2.636,1.416-3.413l3.168-3.16c0.779-0.777,2.316-1.413,3.416-1.413H274z M306.416-484.912
	c-0.779,0.776-2.316,1.412-3.416,1.412h-20c-1.1,0-2-0.9-2-2v-19.016c0-1.1,0.637-2.636,1.416-3.413l3.168-3.16
	c0.779-0.777,2.316-1.413,3.416-1.413h20c1.1,0,2,0.9,2,2v1.985c0,1.1-0.9,2-2,2h-14.096c-1.1,0-2,0.9-2,2v13.031c0,1.1,0.9,2,2,2
	H309c1.1,0,1.363,0.636,0.584,1.412L306.416-484.912z M333.096-510.5c0-1.1,0.9-2,2-2H343c1.1,0,2,0.9,2,2v19.001
	c0,1.1-0.637,2.636-1.414,3.414l-3.172,3.172c-0.777,0.778-2.314,1.414-3.414,1.414h-20c-1.1,0-2-0.9-2-2v-19.016
	c0-1.1,0.637-2.636,1.416-3.413l3.168-3.16c0.779-0.777,2.316-1.413,3.416-1.413h1.904c1.1,0,2,0.9,2,2v19.017c0,1.1,0.9,2,2,2
	h2.191c1.1,0,2-0.9,2-2V-510.5z M372-512.5c1.1,0,2,0.9,2,2v1.985c0,1.1-0.9,2-2,2h-8c-1.1,0-2,0.9-2,2v13.016
	c0,1.1-0.637,2.636-1.414,3.414l-3.172,3.172c-0.777,0.778-2.314,1.414-3.414,1.414h-2c-1.1,0-2-0.9-2-2v-19.016
	c0-1.1,0.637-2.636,1.416-3.413l3.168-3.16c0.779-0.777,2.316-1.413,3.416-1.413H372z M392-500.5c1.1,0,2-0.9,2-2v-2
	c0-1.1-0.9-2-2-2h-2c-1.1,0-2,0.9-2,2v2c0,1.1,0.9,2,2,2H392z M404-512.5c1.1,0,2,0.9,2,2v13.493c0,1.1-0.9,2-2,2h-14.096
	c-1.1,0-2,0.9-2,2v1.523c0,1.1,0.9,2,2,2H404c1.1,0,1.363,0.636,0.584,1.412l-3.168,3.16c-0.779,0.776-2.316,1.412-3.416,1.412h-20
	c-1.1,0-2-0.9-2-2v-19.016c0-1.1,0.637-2.636,1.416-3.413l3.168-3.16c0.779-0.777,2.316-1.413,3.416-1.413H404z M36-512.434
	c-1.1,0-2-0.9-2-2v-6.066c0-1.1-0.9-2-2-2H17c-1.1,0-2.682,0.587-3.516,1.305l-2.969,2.557C9.682-517.921,9-516.434,9-515.333v0.899
	c0,1.1-0.641,2.632-1.424,3.404l-3.152,3.11C3.641-507.147,3-505.615,3-504.515v18.773c0,1.1,0.9,2,2,2h26
	c1.1,0,2.649-0.623,3.443-1.385l3.114-2.988C38.351-488.876,39-490.399,39-491.5v-18.935c0-1.1-0.9-2-2-2H36z M15.594-516.079
	C16.367-516.861,17.9-517.5,19-517.5h7c1.1,0,2,0.9,2,2v1.066c0,1.1-0.9,2-2,2H13.989c-1.1,0-1.367-0.64-0.594-1.422L15.594-516.079
	z M24-495.5c0,1.1-0.9,2-2,2h-2c-1.1,0-2-0.9-2-2v-9c0-1.1,0.9-2,2-2h2c1.1,0,2,0.9,2,2V-495.5z"/>
</svg>
