<?xml version="1.0" encoding="UTF-8" standalone="no"?>
<svg width="800px" height="504px" viewBox="0 0 800 504" version="1.1" xmlns="http://www.w3.org/2000/svg" xmlns:xlink="http://www.w3.org/1999/xlink" xmlns:sketch="http://www.bohemiancoding.com/sketch/ns">
    <!-- Generator: Sketch 3.2.2 (9983) - http://www.bohemiancoding.com/sketch -->
    <title>slide_04</title>
    <desc>Created with Sketch.</desc>
    <defs></defs>
    <g id="Page-1" stroke="none" stroke-width="1" fill="none" fill-rule="evenodd" sketch:type="MSPage">
        <g id="slide_04" sketch:type="MSArtboardGroup">
            <rect id="Rectangle-1" stroke="#979797" fill="#CFEFFF" sketch:type="MSShapeGroup" x="0" y="0" width="800" height="504"></rect>
            <text sketch:type="MSTextLayer" font-family="Helvetica" font-size="54" font-weight="normal" sketch:alignment="middle" fill="#000000">
                <tspan x="299.922363" y="246">slide_04</tspan>
            </text>
            <text id="Artis-Secure-LTD" sketch:type="MSTextLayer" font-family="PT Serif Caption" font-size="21" font-weight="normal" fill="#104F55">
                <tspan x="65.5" y="34">Artis-Secure </tspan>
                <tspan x="202.231" y="34" font-size="15">LTD</tspan>
            </text>
            <g id="artis-secure_logo" sketch:type="MSLayerGroup" transform="translate(10.500000, 7.000000)" fill="#104F55">
                <path d="M0,35.2254616 C0.707581294,33.0813659 1.37757334,30.9242592 2.13581139,28.7976722 C2.65899564,27.3303128 3.30414329,25.9063235 3.89105181,24.4722146 C3.3764179,24.1029251 2.81548307,23.7911413 2.37102651,23.3600091 C1.75346582,22.7610181 1.56035711,21.9821209 1.80767177,21.1415415 C1.85203677,20.9908702 2.03369124,20.8104821 2.1796924,20.781408 C2.28858829,20.7594016 2.50218556,20.9325613 2.56348991,21.0665271 C2.70013409,21.3651392 2.80709405,21.6873639 2.86081602,22.0108737 C2.99358835,22.8108135 3.47014903,23.3653099 4.09077494,23.8791669 C4.38471318,23.4854615 4.41036421,23.1876526 4.0414088,22.8251096 C2.60446703,21.411722 2.48443956,19.6812498 2.93567187,17.8478135 C3.02520849,17.484628 3.18524511,17.018639 3.66309641,17.0769478 C4.16111361,17.1378268 4.06705983,17.6552176 4.0757715,17.9859557 C4.09997059,18.9163275 4.01414449,19.8495906 4.053831,20.7785167 C4.07528752,21.2792019 4.26516969,21.77298 4.37890539,22.2699707 C4.46069831,22.2600116 4.54232989,22.2498919 4.62412281,22.2397722 C4.68349123,21.3710825 4.76076698,20.503196 4.79916287,19.6335426 C4.90338027,17.2806273 4.89595921,14.9183954 5.10842719,12.5757605 C5.40704392,9.28315683 6.70121108,6.343619 8.95688861,3.91970503 C10.9534746,1.77400305 13.5366464,0.634811666 16.443602,0.280300191 C17.4197932,0.161273004 18.4143757,0.182476228 19.4010531,0.160469852 C19.8682568,0.150189501 20.2641538,0.337805904 20.5540589,0.79608467 C20.2512477,0.76958064 19.9460165,0.758657767 19.6461092,0.714002493 C16.2495254,0.208980257 13.3011086,1.117185 10.8165078,3.48552083 C8.75200301,5.45404739 7.52414135,7.9023772 6.92658524,10.6358261 C6.39259206,13.0785339 6.04154398,15.5612386 5.62338376,18.0283622 C5.4447945,19.0824194 5.30024529,20.1425806 5.14166061,21.2001717 C5.12165603,21.3331737 5.11149241,21.4674608 5.17215146,21.6284125 C5.38945925,21.1951921 5.61580138,20.7663087 5.8226229,20.3276269 C7.42621571,16.9301316 9.19710488,13.6261232 11.2708053,10.4843516 C12.4331681,8.72319897 13.9014073,7.28619867 15.7350528,6.17929402 C15.3959429,6.57540879 15.0702232,6.98389211 14.7156259,7.36571076 C12.6088534,9.63333128 10.835383,12.1370786 9.46958659,14.9069906 C8.37078673,17.1357386 7.3603942,19.4078568 6.33177169,21.6701765 C5.95507257,22.4983872 5.61547872,23.3455524 5.31169952,24.2026766 C5.24055421,24.4034647 5.38397413,24.6799098 5.43269495,24.9436651 L4.954521,24.9436651 C4.51716284,26.0859084 4.04802322,27.2363439 3.6351868,28.4070189 C2.99988011,30.207526 2.49928167,32.0626474 1.74620609,33.8114315 C1.40741888,34.5978783 0.596749477,35.1830551 0.000161327244,35.8597914 C0,35.6484017 0,35.4370119 0,35.2254616 L0,35.2254616 Z" id="Shape" sketch:type="MSShapeGroup"></path>
                <path d="M9.22969298,36.5990128 C8.80782223,36.0663622 8.32480847,35.5703352 7.97601896,34.9933505 C7.11517679,33.5696826 6.04541583,33.141763 4.35825551,34.3146868 C3.82458498,34.6860644 3.30107807,35.0808942 2.82193616,35.5178091 C2.2247027,36.0631496 1.49937541,36.0984883 0.751300977,36.142501 C2.19114663,35.0341507 3.44320738,33.6642939 5.16005191,32.9588049 C6.21319616,32.526227 6.98288845,32.7294245 7.58738163,33.661242 C7.82598463,34.0289251 8.08394689,34.3853642 8.34981419,34.7339323 C8.93881996,35.5067256 9.38182457,35.6133842 10.1882995,35.0850706 C10.7290684,34.7305591 11.2220844,34.2987843 11.7121966,33.8737561 C13.308691,32.4896032 15.1481443,31.8589679 17.2295884,32.3125884 C18.2769248,32.541005 19.2656995,33.0370319 20.2783506,33.4185293 C20.3523998,33.446479 20.4059605,33.5287218 20.4400005,33.7279036 C19.9948987,33.6647758 19.5473769,33.6153016 19.1050176,33.5365927 C16.2267782,33.0245027 13.6529634,33.5325769 11.5468362,35.7070318 C11.2128888,36.0517448 10.782629,36.3044165 10.3967343,36.5996554 C10.0077743,36.5990128 9.61865297,36.5990128 9.22969298,36.5990128 L9.22969298,36.5990128 Z" id="Shape" sketch:type="MSShapeGroup"></path>
                <path d="M4.33324978,26.7570226 C4.69333219,26.3711882 5.00953359,25.9288118 5.42188603,25.6093178 C6.63184036,24.6718783 7.89938852,23.8078469 9.1090202,22.8704074 C11.1630387,21.2782381 12.806318,19.3585432 13.9911053,17.0181571 C15.1528228,14.7229081 15.8776661,12.2766665 16.7607714,9.88343294 C17.468514,7.96566561 18.4680976,6.2008185 19.6704696,4.54744895 C20.1016973,3.95472247 20.5485738,3.37083067 20.938663,2.75176079 C21.19598,2.34359874 21.2790635,1.88114358 21.0543347,1.39941276 C20.9846413,1.25018704 20.9791562,1.05245092 21.0009354,0.884110174 C21.0411058,0.573772082 21.2306654,0.483497751 21.4753988,0.695851249 C22.1458748,1.27733359 22.6145305,2.31500651 21.7570762,3.029009 C19.2016526,5.15752352 18.3045118,8.10798422 17.5096525,11.1308893 C16.9884041,13.1124269 16.5450769,15.1204686 15.9015425,17.0623305 C15.3901351,18.6051862 14.6738422,20.0953552 13.5692345,21.3381533 C12.3900937,22.664961 10.8411908,23.486586 9.31358315,24.3273259 C7.83630957,25.1404374 6.34790441,25.9333095 4.86304845,26.7327674 C4.74205302,26.7979833 4.61153928,26.8460119 4.4855427,26.9022325 C4.43456329,26.8538828 4.38390654,26.8052117 4.33324978,26.7570226 L4.33324978,26.7570226 Z" id="Shape" sketch:type="MSShapeGroup"></path>
                <path d="M42.737523,24.0940904 C42.0168742,24.961495 41.3189725,25.8353249 40.5841269,26.6773499 C39.7163477,27.6718132 38.8446966,28.6657946 37.9236793,29.6107837 C36.9181266,30.6429952 35.8344915,31.5985859 34.6384113,32.4120187 C33.6010771,33.1173471 32.4404889,33.5518526 31.211014,33.7813936 C30.2864476,33.9539107 29.3539761,34.0994419 28.4189234,34.2004785 C27.8105584,34.266337 27.191707,34.2372629 26.5773729,34.2387085 C25.8989918,34.2406361 25.2173842,34.2669795 24.5425524,34.2149352 C23.6283109,34.1445791 22.71536,34.0335834 21.8095075,33.892068 C21.3703748,33.8233181 21.1025715,33.4691279 20.9759296,33.0656241 C20.5942294,31.8480451 20.1683255,30.6370519 19.8964891,29.3937719 C19.6211034,28.1350715 19.4905897,26.8431205 19.3307144,25.5612893 C19.1664833,24.2452437 19.2527933,22.9272706 19.4988174,21.6305007 C19.6256206,20.9616354 19.8337328,20.2911638 20.1165394,19.6722545 C20.6018118,18.6100051 21.1430647,17.5694409 21.7215842,16.5542562 C22.1199011,15.8548711 22.6029149,15.2006232 23.0799596,14.5492666 C23.7391427,13.6487721 24.4247835,12.7673926 25.1060684,11.8829612 C25.3354758,11.5851523 25.577628,11.2960174 25.8342996,11.0216605 C25.8725342,10.9806998 26.0335388,11.0190904 26.1182356,11.0606937 C26.6467436,11.3218789 26.8062963,11.834772 27.0089233,12.3340116 C27.4124027,13.3275111 28.1285344,14.0808681 28.9638868,14.7336703 C29.6608205,15.2786896 30.469554,15.5586685 31.325879,15.7165683 C32.2012406,15.8778413 33.0822487,15.8693279 33.9616435,15.7461243 C34.284298,15.7009871 34.6098564,15.6597051 34.9249285,15.5809961 C35.3266333,15.4806021 35.4911871,15.8352742 35.7633462,15.9780747 C36.0448622,16.1255335 36.0932604,16.3623028 36.0998748,16.6891858 C36.1124583,17.2946021 36.2173211,17.901946 36.3299275,18.4998126 C36.4105911,18.9296598 36.54659,19.3525999 36.6935591,19.7660627 C37.1388223,21.0172136 37.9338429,21.9713586 39.1852584,22.4799147 C40.06062,22.8350687 40.9632459,23.1221154 41.8450607,23.4618489 C42.0599485,23.5447342 42.242571,23.712593 42.4361637,23.8465589 C42.5229577,23.9072772 42.6010401,23.9813278 42.737523,24.0940904 L42.737523,24.0940904 Z M33.2871343,25.8277752 L32.8618757,25.4364794 L34.1558815,24.0418855 C35.547329,22.5438457 35.4550498,20.2061902 33.9501893,18.8210736 C32.4451674,17.4356357 30.0972107,17.527677 28.7060859,19.0261987 L27.4120801,20.4201501 L26.9063191,19.9549642 C26.645937,19.7149822 26.2356818,19.7308847 25.9946589,19.9907848 L20.9735097,25.3988918 C20.7324868,25.6586313 20.7487809,26.0671147 21.0093244,26.3067753 L27.3896556,32.179747 C27.6505217,32.419729 28.0607769,32.4038265 28.3017998,32.1439264 L33.3231103,26.7354981 C33.5639719,26.4759192 33.5478391,26.0674359 33.2871343,25.8277752 L33.2871343,25.8277752 Z M28.3368078,21.2716522 L31.9363413,24.5849772 L33.2306698,23.1907046 C34.1494284,22.2008996 34.0884467,20.65708 33.0945096,19.7421288 C32.1004111,18.8273382 30.549895,18.8878959 29.6308137,19.8777009 L28.3368078,21.2716522 L28.3368078,21.2716522 Z M31.9724786,26.2227656 L26.5983454,21.2761499 L22.3443073,25.8584557 L27.7184405,30.8044288 L31.9724786,26.2227656 L31.9724786,26.2227656 Z M26.6606178,24.6935634 C27.1420183,24.1747269 27.9541396,24.1429221 28.4747426,24.6224041 C28.995507,25.1014042 29.0272884,25.9103393 28.5457266,26.4285332 C28.2790527,26.7162224 27.9100973,26.8534009 27.545659,26.8373378 L27.0458672,27.3754499 C26.7601567,27.6832179 26.2782722,27.702333 25.9688465,27.4178564 C25.6600662,27.1330585 25.6408682,26.6532553 25.9264175,26.3458085 L26.3600651,25.8783738 C26.2563317,25.4723 26.3534507,25.0239803 26.6606178,24.6935634 L26.6606178,24.6935634 Z" id="Shape" sketch:type="MSShapeGroup"></path>
            </g>
        </g>
    </g>
</svg>