<?xml version="1.0" encoding="utf-8"?>
<!-- Generator: Adobe Illustrator 16.0.4, SVG Export Plug-In . SVG Version: 6.00 Build 0)  -->
<!DOCTYPE svg PUBLIC "-//W3C//DTD SVG 1.1//EN" "http://www.w3.org/Graphics/SVG/1.1/DTD/svg11.dtd">
<svg version="1.1" id="Layer_1" xmlns:sketch="http://www.bohemiancoding.com/sketch/ns"
	 xmlns="http://www.w3.org/2000/svg" xmlns:xlink="http://www.w3.org/1999/xlink" x="0px" y="0px" width="420px" height="44px"
	 viewBox="0 0 420 44" enable-background="new 0 0 420 44" xml:space="preserve">
<title>artis-secure-logo-square</title>
<desc>Created with Sketch.</desc>
<g>
	<defs>
		<path id="artis-secure" sketch:type="MSShapeGroup" d="M46,18.984V13h30v29H46V24.508h18.095v-5.523H46z M64,30h-6v6h6V30z
			 M105,13v5.984H93V42H81V13H105z M135,13.066v5.6h-5.76V42h-12V18.667H111v-5.6h6.24V7h12v6.066H135z M140,42V19h12v23H140z
			 M140,7h12v6h-12V7z M158,13h30v5.984h-18.095v5.523H188V42h-30v-5.984h18.095v-5.523H158V13z M193,31v-6h18v6H193z M217,13h30
			v5.984h-18.096v5.523H247V42h-30v-5.984h18.096v-5.523H217V13z M270,25v-6h-6v6H270z M282,13v17.492h-18.096v5.523H282V42h-30V13
			H282z M318,42h-30V13h30v5.984h-18.096v17.031H318V42z M341.096,13H353v29h-30V13h11.904v23.016h6.191V13z M382,13v5.984h-12V42
			h-12V13H382z M405,25v-6h-6v6H405z M417,13v17.492h-18.096v5.523H417V42h-30V13H417z"/>
	</defs>
	<clipPath id="artis-secure_1_">
		<use xlink:href="#artis_x002D_secure"  overflow="visible"/>
	</clipPath>
	<g transform="matrix(1 0 0 1 3.814697e-06 -7.629395e-06)" clip-path="url(#artis-secure_1_)">
		
			<image overflow="visible" width="1008" height="672" xlink:href="../../../../jpayinc_jq/source/img/masts/iStock_000019507484_Full.jpg"  transform="matrix(0.3699 0 0 0.3699 45.8477 -99.645)">
		</image>
	</g>
</g>
<linearGradient id="Path-2_1_" gradientUnits="userSpaceOnUse" x1="-92.3472" y1="409.1631" x2="-92.3472" y2="408.1631" gradientTransform="matrix(36 0 0 -40 3343.5 16369.5)">
	<stop  offset="0" style="stop-color:#FED797"/>
	<stop  offset="1" style="stop-color:#FF9F00"/>
</linearGradient>
<path id="Path-2" sketch:type="MSShapeGroup" fill="url(#Path-2_1_)" d="M32,13h5v30L1,42.516V13h4V3h27V13L32,13z M16,31h6V19h-6
	V31z M13,14h12V8H13V14z"/>
</svg>
