<?xml version="1.0" standalone="no"?>
<!DOCTYPE svg PUBLIC "-//W3C//DTD SVG 1.1//EN" "http://www.w3.org/Graphics/SVG/1.1/DTD/svg11.dtd">
<svg width="264px" height="226px" version="1.1" xmlns="http://www.w3.org/2000/svg" xmlns:xlink="http://www.w3.org/1999/xlink" xml:space="preserve" style="fill-rule:evenodd;clip-rule:evenodd;stroke-linejoin:round;stroke-miterlimit:1.41421;">
    <g id="Layer_1">
        <g>
            <path d="M0,218.296C4.386,204.948 8.539,191.518 13.239,178.28C16.482,169.145 20.481,160.28 24.119,151.351C20.929,149.053 17.452,147.112 14.697,144.428C10.869,140.699 9.672,135.849 11.205,130.618C11.48,129.679 12.606,128.556 13.511,128.375C14.186,128.239 15.51,129.316 15.89,130.151C16.737,132.009 17.4,134.016 17.733,136.03C18.556,141.009 21.51,144.461 25.357,147.661C27.179,145.209 27.338,143.355 25.051,141.097C16.144,132.299 15.4,121.525 18.197,110.112C18.752,107.851 19.744,104.949 22.706,105.313C25.793,105.692 25.21,108.912 25.264,110.972C25.414,116.763 24.882,122.575 25.128,128.357C25.261,131.475 26.438,134.549 27.143,137.642C27.65,137.58 28.156,137.518 28.663,137.456C29.031,132.048 29.51,126.644 29.748,121.231C30.394,106.583 30.348,91.877 31.665,77.293C33.516,56.795 41.538,38.495 55.52,23.405C67.896,10.047 83.908,2.955 101.927,0.748C107.978,0.007 114.143,0.139 120.259,0.002C123.155,-0.062 125.609,1.106 127.406,3.959C125.529,3.794 123.637,3.726 121.778,3.448C100.724,0.304 82.448,5.958 67.047,20.702C54.25,32.953 46.639,48.195 42.935,65.213C39.625,80.42 37.449,95.876 34.857,111.235C33.75,117.798 32.854,124.397 31.871,130.98C31.747,131.808 31.684,132.645 32.06,133.647C33.407,130.95 34.81,128.279 36.092,125.55C46.032,104.398 57.009,83.829 69.863,64.27C77.068,53.306 86.169,44.36 97.535,37.469C95.433,39.935 93.414,42.478 91.216,44.855C78.157,58.971 67.164,74.558 58.698,91.802C51.887,105.677 45.624,119.823 39.248,133.906C36.913,139.062 34.808,144.337 32.925,149.673C32.484,150.923 33.373,152.643 33.675,154.285C33.068,154.285 32.05,154.285 30.711,154.285C28,161.397 25.092,168.559 22.533,175.846C18.595,187.055 15.492,198.604 10.824,209.49C8.724,214.387 3.699,218.03 0.001,222.242C0,220.927 0,219.611 0,218.296Z" style="fill:black;"/>
        </g>
        <g>
            <path d="M57.211,226.845C54.596,223.529 51.602,220.441 49.44,216.85C44.104,207.987 37.473,205.323 27.015,212.626C23.707,214.937 20.462,217.394 17.492,220.116C13.79,223.509 9.294,223.73 4.657,224.005C13.582,217.104 21.343,208.576 31.985,204.184C38.513,201.49 43.284,202.757 47.031,208.557C48.51,210.846 50.109,213.064 51.757,215.235C55.408,220.046 58.154,220.709 63.153,217.42C66.505,215.214 69.561,212.525 72.599,209.88C82.495,201.261 93.897,197.336 106.799,200.161C113.291,201.582 119.42,204.67 125.697,207.046C126.156,207.219 126.488,207.731 126.699,208.971C123.94,208.578 121.166,208.269 118.424,207.779C100.583,204.592 84.629,207.754 71.574,221.291C69.504,223.437 66.837,225.009 64.445,226.847C62.034,226.845 59.622,226.845 57.211,226.845Z" style="fill:black;"/>
        </g>
        <g>
            <path d="M26.86,165.575C29.092,163.172 31.052,160.418 33.608,158.429C41.108,152.594 48.965,147.216 56.463,141.379C69.195,131.467 79.381,119.516 86.725,104.946C93.926,90.657 98.419,75.428 103.893,60.529C108.28,48.59 114.476,37.603 121.929,27.31C124.602,23.62 127.372,19.985 129.79,16.131C131.385,13.59 131.901,10.711 130.507,7.712C130.075,6.783 130.041,5.552 130.176,4.504C130.425,2.572 131.599,2.01 133.117,3.332C137.274,6.952 140.178,13.412 134.863,17.857C119.023,31.108 113.462,49.476 108.535,68.295C105.304,80.631 102.556,93.132 98.567,105.221C95.397,114.826 90.957,124.103 84.11,131.84C76.801,140.099 67.2,145.215 57.731,150.449C48.574,155.511 39.348,160.447 30.144,165.425C29.394,165.831 28.585,166.13 27.804,166.479C27.488,166.177 27.174,165.876 26.86,165.575Z" style="fill:black;"/>
        </g>
        <g>
            <path d="M264.912,148.996C260.445,154.396 256.119,159.836 251.565,165.078C246.186,171.269 240.782,177.457 235.073,183.341C228.84,189.766 222.123,195.716 214.709,200.779C208.28,205.171 201.085,207.875 193.464,209.304C187.732,210.379 181.953,211.285 176.157,211.915C172.387,212.325 168.55,212.142 164.742,212.152C160.537,212.164 156.312,212.328 152.129,212.004C146.462,211.566 140.803,210.876 135.188,209.994C132.466,209.566 130.805,207.362 130.021,204.85C127.655,197.269 125.015,189.731 123.33,181.991C121.623,174.154 120.814,166.111 119.823,158.132C118.805,149.938 119.34,141.733 120.865,133.661C121.651,129.496 122.941,125.322 124.694,121.468C127.702,114.855 131.057,108.378 134.643,102.058C137.112,97.704 140.106,93.631 143.062,89.576C147.148,83.97 151.399,78.483 155.621,72.977C157.043,71.123 158.544,69.323 160.135,67.615C160.372,67.36 161.37,67.599 161.894,67.858C165.171,69.484 166.159,72.677 167.415,75.785C169.916,81.97 174.355,86.66 179.533,90.724C183.854,94.117 188.866,95.86 194.174,96.843C199.599,97.847 205.06,97.794 210.512,97.027C212.512,96.746 214.529,96.489 216.483,95.999C218.972,95.374 219.992,97.582 221.68,98.471C223.425,99.389 223.724,100.863 223.766,102.898C223.843,106.667 224.493,110.448 225.191,114.171C225.692,116.846 226.534,119.479 227.445,122.052C230.205,129.841 235.133,135.782 242.891,138.947C248.316,141.159 253.912,142.945 259.378,145.06C260.71,145.576 261.842,146.621 263.042,147.456C263.582,147.834 264.066,148.295 264.912,148.996ZM206.556,165.441L175.432,199.112C173.938,200.728 171.395,200.829 169.778,199.334L130.228,162.772C128.613,161.28 128.512,158.737 130.006,157.12L161.13,123.451C162.624,121.834 165.167,121.735 166.781,123.229L169.916,126.126L177.938,117.447C186.561,108.118 201.114,107.546 210.444,116.17C219.772,124.793 220.343,139.346 211.719,148.673L203.697,157.353L206.333,159.789C207.949,161.282 208.049,163.825 206.556,165.441ZM175.649,131.426L197.961,152.052L205.984,143.373C211.68,137.212 211.302,127.599 205.141,121.904C198.979,116.209 189.367,116.586 183.671,122.748ZM198.183,162.249L164.871,131.454L138.502,159.981L171.814,190.772ZM163.396,160.104L160.708,163.013C158.938,164.927 159.056,167.915 160.971,169.687C162.888,171.459 165.875,171.34 167.646,169.424L170.744,166.074C173.003,166.175 175.29,165.32 176.944,163.529C179.927,160.302 179.73,155.267 176.503,152.285C173.276,149.301 168.242,149.499 165.258,152.728C163.354,154.786 162.752,157.577 163.396,160.104Z" style="fill:black;"/>
        </g>
    </g>
</svg>
